<svg width="43" height="92" viewBox="0 0 43 92" fill="none" xmlns="http://www.w3.org/2000/svg">
<path fill-rule="evenodd" clip-rule="evenodd" d="M25.668 4.33366C25.668 3.22859 25.229 2.16878 24.4476 1.38738C23.6662 0.605979 22.6064 0.166992 21.5013 0.166992C20.3962 0.166992 19.3364 0.605979 18.555 1.38738C17.7736 2.16878 17.3346 3.22859 17.3346 4.33366V12.667C16.2296 12.667 15.1698 13.106 14.3884 13.8874C13.607 14.6688 13.168 15.7286 13.168 16.8337V25.7253C12.5346 26.091 12.0086 26.617 11.6429 27.2504C11.2772 27.8838 11.0847 28.6023 11.0846 29.3337V42.392C10.4512 42.7577 9.92526 43.2837 9.55956 43.917C9.19386 44.5504 9.00132 45.2689 9.0013 46.0003V58.5003C7.89623 58.5003 6.83643 58.9393 6.05503 59.7207C5.27362 60.5021 4.83464 61.5619 4.83464 62.667V83.5003C3.72957 83.5003 2.66976 83.9393 1.88836 84.7207C1.10696 85.5021 0.667969 86.5619 0.667969 87.667C0.667969 88.7721 1.10696 89.8319 1.88836 90.6133C2.66976 91.3947 3.72957 91.8337 4.83464 91.8337H38.168C39.273 91.8337 40.3329 91.3947 41.1143 90.6133C41.8957 89.8319 42.3346 88.7721 42.3346 87.667C42.3346 86.5619 41.8957 85.5021 41.1143 84.7207C40.3329 83.9393 39.273 83.5003 38.168 83.5003V66.8337C38.168 65.7286 37.729 64.6688 36.9476 63.8874C36.1662 63.106 35.1064 62.667 34.0013 62.667V50.167C34.0013 49.4356 33.8088 48.7171 33.4431 48.0837C33.0774 47.4503 32.5514 46.9243 31.918 46.5587V33.5003C31.918 32.7689 31.7254 32.0504 31.3597 31.4171C30.994 30.7837 30.468 30.2577 29.8346 29.892V16.8337C29.8346 15.7286 29.3957 14.6688 28.6142 13.8874C27.8328 13.106 26.773 12.667 25.668 12.667V4.33366Z" fill="#007C60"/>
</svg>
