<svg width="84" height="84" viewBox="0 0 84 84" fill="none" xmlns="http://www.w3.org/2000/svg">
<path fill-rule="evenodd" clip-rule="evenodd" d="M59.2376 11.6997L66.8626 19.3247C78.0626 30.5331 83.6668 36.1331 83.6668 43.0914C83.6668 50.0539 78.0626 55.6539 66.8584 66.858C55.6543 78.0705 50.0543 83.6664 43.0918 83.6664C36.1334 83.6664 30.5293 78.0622 19.3251 66.858L11.7001 59.233C5.2626 52.7955 2.04176 49.5789 0.845927 45.3997C-0.354073 41.2206 0.670927 36.7831 2.72093 27.9122L3.90009 22.7956C5.62093 15.3289 6.48343 11.5956 9.0376 9.03722C11.5959 6.48305 15.3293 5.62055 22.7959 3.89972L27.9126 2.71639C36.7876 0.670554 41.2209 -0.354446 45.4001 0.841387C49.5793 2.04139 52.8001 5.26222 59.2376 11.6997ZM38.4459 51.6997C35.6418 48.8997 35.6626 44.8747 37.3418 41.6872C36.9261 41.0868 36.7338 40.3597 36.7983 39.6323C36.8628 38.9048 37.1801 38.2229 37.695 37.7051C38.2099 37.1872 38.89 36.866 39.617 36.7973C40.3441 36.7285 41.0723 36.9166 41.6751 37.3289C43.0918 36.5789 44.6459 36.1789 46.1959 36.1956C47.0247 36.2033 47.8165 36.5399 48.3971 37.1315C48.9777 37.723 49.2995 38.5209 49.2918 39.3497C49.284 40.1785 48.9474 40.9703 48.3559 41.5509C47.7643 42.1315 46.9664 42.4533 46.1376 42.4456C45.1728 42.4812 44.261 42.8959 43.6001 43.5997C41.9876 45.2122 42.4084 46.8289 42.8626 47.2831C43.3209 47.7372 44.9334 48.1581 46.5459 46.5455C49.8126 43.2789 55.4543 42.1955 59.0668 45.808C61.8709 48.6122 61.8501 52.6372 60.1709 55.8247C60.584 56.4253 60.7742 57.1514 60.7085 57.8773C60.6428 58.6033 60.3254 59.2834 59.8112 59.8001C59.297 60.3167 58.6184 60.6374 57.8928 60.7066C57.1671 60.7757 56.4401 60.5891 55.8376 60.1789C53.9677 61.2044 51.7989 61.5463 49.7043 61.1455C48.892 60.9787 48.1794 60.496 47.723 59.8037C47.2667 59.1114 47.1041 58.2661 47.2709 57.4539C47.4378 56.6417 47.9205 55.929 48.6128 55.4726C49.3051 55.0163 50.1504 54.8537 50.9626 55.0205C51.7001 55.1747 52.8918 54.9331 53.9126 53.9122C55.5251 52.2956 55.1043 50.6831 54.6501 50.2289C54.1918 49.7747 52.5793 49.3539 50.9668 50.9664C47.7001 54.2331 42.0584 55.3164 38.4459 51.6997ZM33.7543 34.8872C34.528 34.1132 35.1417 33.1945 35.5603 32.1833C35.9789 31.1722 36.1943 30.0885 36.1941 28.9941C36.1939 27.8997 35.9781 26.8161 35.5591 25.8051C35.1402 24.7941 34.5262 23.8755 33.7522 23.1018C32.9782 22.3281 32.0594 21.7144 31.0483 21.2958C30.0371 20.8772 28.9534 20.6618 27.859 20.662C26.7647 20.6622 25.681 20.8779 24.67 21.2969C23.659 21.7159 22.7405 22.3299 21.9668 23.1039C20.4042 24.667 19.5266 26.7868 19.527 28.997C19.5274 31.2072 20.4057 33.3267 21.9688 34.8893C23.532 36.4519 25.6518 37.3295 27.862 37.3291C30.0722 37.3287 32.1917 36.4503 33.7543 34.8872Z" fill="#007C60"/>
</svg>
