<svg width="82" height="88" viewBox="0 0 82 88" fill="none" xmlns="http://www.w3.org/2000/svg">
<path d="M50 8.50033H25V0.166992H50V8.50033ZM41.6667 75.167C41.6667 79.4587 42.75 83.5003 44.625 86.9587C42.3333 87.417 39.9583 87.667 37.5 87.667C27.5544 87.667 18.0161 83.7161 10.9835 76.6835C3.95088 69.6509 0 60.1126 0 50.167C0 40.2214 3.95088 30.6831 10.9835 23.6505C18.0161 16.6179 27.5544 12.667 37.5 12.667C46.3333 12.667 54.4583 15.7503 60.9167 21.0003L66.8333 15.0003C68.9583 16.8337 70.8333 18.7503 72.7083 20.8753L66.7917 26.792C72.1078 33.4227 75.0033 41.6683 75 50.167V51.6253C72.3333 50.7087 69.5833 50.167 66.6667 50.167C52.875 50.167 41.6667 61.3753 41.6667 75.167ZM41.6667 25.167H33.3333V54.3337H41.6667V25.167ZM76.4167 62.0003L61.4583 76.9587L54.8333 70.3337L50 75.167L61.4583 87.667L81.25 67.8753L76.4167 62.0003Z" fill="#007C60"/>
</svg>
