<svg width="100" height="100" viewBox="0 0 100 100" fill="none" xmlns="http://www.w3.org/2000/svg">
<path d="M12.5 81.25L32.9297 35.293C35.918 28.5742 40.8008 22.8906 46.9922 18.9453L75.6836 0.585929C76.2695 0.214835 76.9531 0.0195228 77.6367 0.0195228C79.6289 -8.45455e-06 81.25 1.62109 81.25 3.6328V3.9453C81.25 4.45312 81.1523 4.9414 80.9766 5.41015L69.2969 34.5508C68.9258 35.4687 68.75 36.4453 68.75 37.4219C68.75 38.4961 68.9844 39.5703 69.4141 40.5664L87.5 81.25H47.0508L49.3555 74.3359L57.2461 71.6992C58.5156 71.2695 59.375 70.0781 59.375 68.7305C59.375 67.3828 58.5156 66.1914 57.2461 65.7617L49.3555 63.125L46.7188 55.2344C46.2891 53.9844 45.0977 53.125 43.75 53.125C42.4023 53.125 41.2109 53.9844 40.7812 55.2539L38.1445 63.1445L30.2539 65.7812C28.9844 66.2109 28.125 67.4023 28.125 68.75C28.125 70.0976 28.9844 71.2891 30.2539 71.7188L38.1445 74.3555L40.4492 81.25H12.5ZM54.6094 27.6367C54.3945 26.9922 53.8086 26.5625 53.125 26.5625C52.4414 26.5625 51.8555 26.9922 51.6406 27.6367L50.332 31.582L46.3867 32.8906C45.7422 33.1055 45.3125 33.6914 45.3125 34.375C45.3125 35.0586 45.7422 35.6445 46.3867 35.8594L50.332 37.168L51.6406 41.1133C51.8555 41.7578 52.4414 42.1875 53.125 42.1875C53.8086 42.1875 54.3945 41.7578 54.6094 41.1133L55.918 37.168L59.8633 35.8594C60.5078 35.6445 60.9375 35.0586 60.9375 34.375C60.9375 33.6914 60.5078 33.1055 59.8633 32.8906L55.918 31.582L54.6094 27.6367ZM6.25 87.5H93.75C97.207 87.5 100 90.293 100 93.75C100 97.207 97.207 100 93.75 100H6.25C2.79297 100 0 97.207 0 93.75C0 90.293 2.79297 87.5 6.25 87.5Z" fill="#007C60"/>
</svg>
