<svg width="151" height="79" viewBox="0 0 151 79" fill="none" xmlns="http://www.w3.org/2000/svg">
<path d="M20.6412 71.735C22.0182 71.735 22.9002 72.527 22.9002 73.7904C22.9002 75.0538 22.0167 75.8364 20.6412 75.8364H19.8042V78.335H18.7422V71.7334H20.6412V71.735ZM19.8042 72.7155V74.8558H20.6412C21.3702 74.8558 21.8562 74.4975 21.8562 73.7904C21.8562 73.0833 21.3702 72.7155 20.6412 72.7155H19.8042Z" fill="white"/>
<path d="M33.0881 71.735C34.4651 71.735 35.3561 72.5553 35.3561 73.7904C35.3561 74.7427 34.8251 75.4404 33.9521 75.7138L35.7341 78.335H34.4471L32.8616 75.8364H32.2046V78.335H31.1426V71.7334H33.0881V71.735ZM32.2046 72.7061V74.914H33.0416C33.7706 74.914 34.2566 74.5164 34.2566 73.8108C34.2566 73.1053 33.7706 72.7077 33.0416 72.7077H32.2046V72.7061Z" fill="white"/>
<path d="M60.0025 71.735C61.381 71.735 62.2615 72.527 62.2615 73.7904C62.2615 75.0538 61.3795 75.8364 60.0025 75.8364H59.1655V78.335H58.1035V71.7334H60.0025V71.735ZM59.1655 72.7155V74.8558H60.0025C60.7315 74.8558 61.2175 74.4975 61.2175 73.7904C61.2175 73.0833 60.7315 72.7155 60.0025 72.7155H59.1655Z" fill="white"/>
<path d="M74.3399 71.735V72.7155H71.5499V74.3184H74.1614V75.2801H71.5499V77.3544H74.3399V78.335H70.5059V71.7334H74.3399V71.735Z" fill="white"/>
<path d="M84.7878 71.735C86.1663 71.735 87.0558 72.5553 87.0558 73.7904C87.0558 74.7427 86.5248 75.4404 85.6518 75.7138L87.4337 78.335H86.1468L84.5628 75.8364H83.9058V78.335H82.8438V71.7334H84.7878V71.735ZM83.9058 72.7061V74.914H84.7428C85.4718 74.914 85.9578 74.5164 85.9578 73.8108C85.9578 73.1053 85.4718 72.7077 84.7428 72.7077H83.9058V72.7061Z" fill="white"/>
<path d="M94.758 71.7354H99.15V72.7631H97.485V78.3354H96.414V72.7631H94.758V71.7354Z" fill="white"/>
<path d="M108.184 71.7354V78.3369H107.113V71.7354H108.184Z" fill="white"/>
<path d="M120.623 71.735V72.7155H117.833V74.3184H120.445V75.2801H117.833V77.3544H120.623V78.335H116.789V71.7334H120.623V71.735Z" fill="white"/>
<path d="M8.26705 40.8709H0.998047V38.0234H18.647V40.8709H11.378V62.0349H8.26705V40.8709Z" fill="white"/>
<path d="M29.0763 61.3497C28.6278 60.8924 28.4043 60.2639 28.4043 59.464V38.0234H44.4813V40.8709H31.5153V48.3493H43.4988V51.1622H31.5153V59.189H44.4813V62.0349H30.8928C30.1278 62.0349 29.5233 61.807 29.0763 61.3482V61.3497Z" fill="white"/>
<path d="M55.5665 61.3497C55.118 60.8924 54.8945 60.2764 54.8945 59.4986V38.0234H58.0055V59.156H70.448V62.0364H57.383C56.618 62.0364 56.0135 61.8086 55.5665 61.3497Z" fill="white"/>
<path d="M80.7462 61.3497C80.2977 60.8924 80.0742 60.2764 80.0742 59.4986V38.0234H83.1852V59.156H95.6277V62.0364H82.5627C81.7977 62.0364 81.1932 61.8086 80.7462 61.3497Z" fill="white"/>
<path d="M107.925 61.2998C106.8 60.6257 105.933 59.6702 105.321 58.4367C104.71 57.2 104.404 55.7841 104.404 54.1828V38.0254H107.515V54.1828C107.515 55.7385 107.914 56.9957 108.711 57.9558C109.507 58.9175 110.548 59.3968 111.838 59.3968H115.342C116.631 59.3968 117.672 58.9175 118.47 57.9558C119.266 56.9972 119.665 55.7385 119.665 54.1828V38.0254H122.776V54.1828C122.776 55.7841 122.47 57.2 121.86 58.4367C121.249 59.6718 120.381 60.6257 119.256 61.2998C118.132 61.974 116.827 62.3118 115.344 62.3118H111.84C110.355 62.3118 109.05 61.974 107.926 61.2998H107.925Z" fill="white"/>
<path d="M135.151 60.3224C133.885 58.9961 133.252 57.2125 133.252 54.9717H136.298C136.298 56.3215 136.663 57.3948 137.395 58.1962C138.127 58.9977 139.093 59.3968 140.293 59.3968H143.927C145.127 59.3968 146.089 59.1281 146.809 58.5907C147.529 58.0532 147.889 57.3382 147.889 56.4472V54.593C147.889 53.8858 147.632 53.2902 147.119 52.8094C146.606 52.3301 145.879 52.008 144.941 51.8508L138.982 50.82C137.234 50.5245 135.887 49.8928 134.938 48.9342C133.988 47.9725 133.513 46.772 133.513 45.331V43.4452C133.513 41.7308 134.14 40.3511 135.395 39.3124C136.651 38.2705 138.304 37.752 140.357 37.752H144.056C145.345 37.752 146.485 38.0317 147.478 38.5911C148.471 39.1505 149.242 39.941 149.786 40.9577C150.332 41.976 150.605 43.1498 150.605 44.4761H147.527C147.527 43.3305 147.211 42.4112 146.578 41.7135C145.945 41.0158 145.105 40.667 144.056 40.667H140.357C139.243 40.667 138.343 40.9247 137.656 41.4401C136.967 41.954 136.625 42.6564 136.625 43.549V45.0937C136.625 45.826 136.871 46.431 137.362 46.9118C137.854 47.3911 138.557 47.7242 139.474 47.905L145.367 48.9704C147.179 49.291 148.571 49.9132 149.542 50.8404C150.514 51.766 150.998 52.9257 150.998 54.3211V56.5494C150.998 58.289 150.359 59.6844 149.083 60.7357C147.806 61.7885 146.108 62.315 143.992 62.315H140.227C138.11 62.315 136.418 61.6518 135.151 60.3255V60.3224Z" fill="white"/>
<path d="M46.5951 71.6221C48.4761 71.6221 49.8726 73.0662 49.8726 75.0352C49.8726 77.0042 48.4866 78.4767 46.5951 78.4767C44.7036 78.4767 43.3281 77.0058 43.3281 75.0352C43.3281 73.0646 44.7216 71.6221 46.5951 71.6221ZM46.5951 77.3845C47.8461 77.3845 48.7371 76.3945 48.7371 75.0352C48.7371 73.6759 47.8641 72.6875 46.5951 72.6875C45.3261 72.6875 44.4531 73.6775 44.4531 75.0352C44.4531 76.3929 45.3441 77.3845 46.5951 77.3845Z" fill="white"/>
<path d="M131.162 77.4792C131.747 77.4792 132.134 77.1303 132.134 76.6023C132.134 75.8763 131.585 75.639 130.793 75.3295C130.162 75.0937 129.119 74.6317 129.119 73.3966C129.119 72.3406 129.965 71.624 131.099 71.624C132.233 71.624 132.892 72.3406 133.216 73.0289L132.352 73.538C132.089 73.0572 131.72 72.6125 131.083 72.6125C130.498 72.6125 130.228 72.9519 130.228 73.3212C130.228 73.8397 130.642 74.1603 131.659 74.528C132.415 74.8015 133.261 75.3577 133.261 76.508C133.261 77.7337 132.235 78.4786 131.164 78.4786C130.093 78.4786 129.156 77.7055 128.75 76.7909L129.542 76.2063C129.947 76.97 130.451 77.4792 131.164 77.4792H131.162Z" fill="white"/>
<path d="M63.186 16.485L69.795 4.49503H56.58L54.3885 0.522461H76.3635L65.3775 20.4576L63.186 16.485Z" fill="white"/>
<path d="M76.3624 0.522461L79.2964 5.84332L68.3104 25.7769L70.4464 29.652L84.3304 4.49503H95.4199L97.6114 0.522461H76.3624Z" fill="white"/>
</svg>
