<svg width="220" height="94" viewBox="0 0 220 94" fill="none" xmlns="http://www.w3.org/2000/svg">
<line x1="-850" y1="48.25" x2="100" y2="48.2499" stroke="url(#paint0_linear_2_390)" stroke-width="1.5"/>
<line x1="120" y1="48.25" x2="1070" y2="48.2499" stroke="url(#paint1_linear_2_390)" stroke-width="1.5"/>
<path d="M27.2164 48.621H18.332V45.2559H39.903V48.621H31.0187V73.633H27.2164V48.621Z" fill="#007C60"/>
<path d="M52.6495 72.8233C52.1013 72.2829 51.8281 71.54 51.8281 70.5947V45.2559H71.4778V48.621H55.6305V57.4591H70.277V60.7834H55.6305V70.2697H71.4778V73.633H54.8696C53.9346 73.633 53.1958 73.3637 52.6495 72.8214V72.8233Z" fill="#007C60"/>
<path d="M85.0264 72.8233C84.4782 72.2829 84.2051 71.5549 84.2051 70.6356V45.2559H88.0074V70.2307H103.215V73.6349H87.2466C86.3116 73.6349 85.5727 73.3656 85.0264 72.8233Z" fill="#007C60"/>
<path d="M115.802 72.8233C115.254 72.2829 114.98 71.5549 114.98 70.6356V45.2559H118.783V70.2307H133.99V73.6349H118.022C117.087 73.6349 116.348 73.3656 115.802 72.8233Z" fill="#007C60"/>
<path d="M149.02 72.764C147.645 71.9672 146.585 70.8381 145.837 69.3802C145.091 67.9187 144.717 66.2454 144.717 64.353V45.2578H148.519V64.353C148.519 66.1915 149.007 67.6772 149.98 68.812C150.954 69.9485 152.226 70.515 153.803 70.515H158.085C159.66 70.515 160.933 69.9485 161.908 68.812C162.881 67.6791 163.369 66.1915 163.369 64.353V45.2578H167.171V64.353C167.171 66.2454 166.797 67.9187 166.051 69.3802C165.305 70.84 164.244 71.9672 162.869 72.764C161.495 73.5607 159.9 73.96 158.087 73.96H153.805C151.99 73.96 150.395 73.5607 149.021 72.764H149.02Z" fill="#007C60"/>
<path d="M182.298 71.6087C180.75 70.0413 179.977 67.9334 179.977 65.2851H183.7C183.7 66.8804 184.146 68.1489 185.04 69.096C185.935 70.0431 187.116 70.5149 188.582 70.5149H193.024C194.491 70.5149 195.666 70.1973 196.546 69.5621C197.426 68.927 197.866 68.082 197.866 67.029V64.8376C197.866 64.0019 197.553 63.298 196.926 62.7297C196.299 62.1633 195.41 61.7826 194.264 61.5969L186.98 60.3786C184.844 60.0294 183.198 59.2829 182.037 58.15C180.877 57.0134 180.296 55.5946 180.296 53.8916V51.663C180.296 49.6369 181.062 48.0063 182.596 46.7787C184.131 45.5474 186.151 44.9346 188.661 44.9346H193.182C194.757 44.9346 196.15 45.2651 197.364 45.9263C198.578 46.5874 199.52 47.5216 200.185 48.7231C200.853 49.9266 201.186 51.3139 201.186 52.8813H197.424C197.424 51.5274 197.038 50.441 196.264 49.6164C195.49 48.7919 194.464 48.3796 193.182 48.3796H188.661C187.299 48.3796 186.199 48.6841 185.359 49.2933C184.518 49.9006 184.1 50.7307 184.1 51.7856V53.6111C184.1 54.4766 184.4 55.1916 185 55.7599C185.601 56.3263 186.461 56.72 187.581 56.9336L194.784 58.1927C196.999 58.5716 198.7 59.307 199.887 60.4027C201.075 61.4966 201.667 62.8671 201.667 64.5163V67.1497C201.667 69.2056 200.886 70.8547 199.326 72.0971C197.765 73.3414 195.69 73.9636 193.103 73.9636H188.502C185.915 73.9636 183.847 73.1799 182.298 71.6124V71.6087Z" fill="#007C60"/>
<path d="M42.3386 85.0956C44.0216 85.0956 45.0996 86.0316 45.0996 87.5248C45.0996 89.0179 44.0197 89.9427 42.3386 89.9427H41.3156V92.8956H40.0176V85.0938H42.3386V85.0956ZM41.3156 86.2545V88.7839H42.3386C43.2296 88.7839 43.8236 88.3605 43.8236 87.5248C43.8236 86.689 43.2296 86.2545 42.3386 86.2545H41.3156Z" fill="#007C60"/>
<path d="M57.5516 85.0956C59.2346 85.0956 60.3236 86.065 60.3236 87.5248C60.3236 88.6502 59.6746 89.4748 58.6076 89.7979L60.7856 92.8956H59.2126L57.2747 89.9427H56.4717V92.8956H55.1737V85.0938H57.5516V85.0956ZM56.4717 86.2433V88.8526H57.4947C58.3857 88.8526 58.9797 88.3828 58.9797 87.5489C58.9797 86.715 58.3857 86.2452 57.4947 86.2452H56.4717V86.2433Z" fill="#007C60"/>
<path d="M74.0594 84.9619C76.3584 84.9619 78.0652 86.6686 78.0652 88.9956C78.0652 91.3226 76.3712 93.0628 74.0594 93.0628C71.7476 93.0628 70.0664 91.3245 70.0664 88.9956C70.0664 86.6668 71.7696 84.9619 74.0594 84.9619ZM74.0594 91.7721C75.5884 91.7721 76.6774 90.6021 76.6774 88.9956C76.6774 87.3892 75.6104 86.2211 74.0594 86.2211C72.5084 86.2211 71.4414 87.3911 71.4414 88.9956C71.4414 90.6002 72.5304 91.7721 74.0594 91.7721Z" fill="#007C60"/>
<path d="M90.448 85.0956C92.1328 85.0956 93.209 86.0316 93.209 87.5248C93.209 89.0179 92.131 89.9427 90.448 89.9427H89.425V92.8956H88.127V85.0938H90.448V85.0956ZM89.425 86.2545V88.7839H90.448C91.339 88.7839 91.933 88.3605 91.933 87.5248C91.933 86.689 91.339 86.2545 90.448 86.2545H89.425Z" fill="#007C60"/>
<path d="M107.969 85.0956V86.2545H104.559V88.1488H107.751V89.2853H104.559V91.7368H107.969V92.8956H103.283V85.0938H107.969V85.0956Z" fill="#007C60"/>
<path d="M120.739 85.0956C122.424 85.0956 123.511 86.065 123.511 87.5248C123.511 88.6502 122.862 89.4748 121.795 89.7979L123.973 92.8956H122.4L120.464 89.9427H119.661V92.8956H118.363V85.0938H120.739V85.0956ZM119.661 86.2433V88.8526H120.684C121.575 88.8526 122.169 88.3828 122.169 87.5489C122.169 86.715 121.575 86.2452 120.684 86.2452H119.661V86.2433Z" fill="#007C60"/>
<path d="M132.926 85.0957H138.294V86.3103H136.259V92.8957H134.95V86.3103H132.926V85.0957Z" fill="#007C60"/>
<path d="M149.336 85.0957V92.8976H148.027V85.0957H149.336Z" fill="#007C60"/>
<path d="M164.538 85.0956V86.2545H161.128V88.1488H164.319V89.2853H161.128V91.7368H164.538V92.8956H159.852V85.0938H164.538V85.0956Z" fill="#007C60"/>
<path d="M177.419 91.8836C178.134 91.8836 178.607 91.4713 178.607 90.8473C178.607 89.9893 177.936 89.7089 176.968 89.343C176.196 89.0644 174.922 88.5184 174.922 87.0587C174.922 85.8107 175.956 84.9639 177.342 84.9639C178.728 84.9639 179.532 85.8107 179.928 86.6242L178.872 87.2259C178.552 86.6576 178.101 86.132 177.321 86.132C176.606 86.132 176.276 86.5332 176.276 86.9696C176.276 87.5824 176.782 87.9613 178.025 88.3959C178.949 88.719 179.983 89.3764 179.983 90.7359C179.983 92.1844 178.729 93.0647 177.42 93.0647C176.111 93.0647 174.967 92.151 174.471 91.0702L175.439 90.3793C175.934 91.2819 176.55 91.8836 177.42 91.8836H177.419Z" fill="#007C60"/>
<path d="M94.3384 19.8004L102.416 5.6304H86.2644L83.5859 0.935547H110.444L97.0169 24.4953L94.3384 19.8004Z" fill="#007C60"/>
<path d="M110.443 0.935547L114.029 7.22383L100.602 30.7817L103.212 35.3614L120.182 5.6304H133.735L136.414 0.935547H110.443Z" fill="#007C60"/>
<defs>
<linearGradient id="paint0_linear_2_390" x1="100" y1="48.9998" x2="-850" y2="48.9999" gradientUnits="userSpaceOnUse">
<stop offset="0.244792" stop-color="#007C60" stop-opacity="0"/>
<stop offset="0.505208" stop-color="#007C60"/>
<stop offset="0.755208" stop-color="#007C60" stop-opacity="0"/>
</linearGradient>
<linearGradient id="paint1_linear_2_390" x1="1070" y1="48.9998" x2="120" y2="48.9999" gradientUnits="userSpaceOnUse">
<stop offset="0.244792" stop-color="#007C60" stop-opacity="0"/>
<stop offset="0.505208" stop-color="#007C60"/>
<stop offset="0.755208" stop-color="#007C60" stop-opacity="0"/>
</linearGradient>
</defs>
</svg>
