<svg width="20" height="21" viewBox="0 0 20 21" fill="none" xmlns="http://www.w3.org/2000/svg">
<path d="M4.02222 9.15556C5.62222 12.3 8.2 14.8778 11.3444 16.4778L13.7889 14.0333C14.1 13.7222 14.5333 13.6333 14.9222 13.7556C16.1667 14.1667 17.5 14.3889 18.8889 14.3889C19.1836 14.3889 19.4662 14.506 19.6746 14.7143C19.8829 14.9227 20 15.2053 20 15.5V19.3889C20 19.6836 19.8829 19.9662 19.6746 20.1746C19.4662 20.3829 19.1836 20.5 18.8889 20.5C13.8792 20.5 9.07478 18.5099 5.53243 14.9676C1.99007 11.4252 0 6.62076 0 1.61111C0 1.31643 0.117063 1.03381 0.325437 0.825437C0.533811 0.617063 0.816426 0.5 1.11111 0.5H5C5.29469 0.5 5.5773 0.617063 5.78567 0.825437C5.99405 1.03381 6.11111 1.31643 6.11111 1.61111C6.11111 3 6.33333 4.33333 6.74444 5.57778C6.86667 5.96667 6.77778 6.4 6.46667 6.71111L4.02222 9.15556Z" fill="#007C60"/>
</svg>
