<svg width="30" height="28" viewBox="0 0 30 28" fill="none" xmlns="http://www.w3.org/2000/svg">
<path d="M29.5828 0.795405C29.4168 0.650911 29.2148 0.554812 28.9986 0.517463C28.7825 0.480114 28.5603 0.50293 28.356 0.583453L1.21425 11.2904C0.829585 11.4412 0.503925 11.7138 0.286294 12.0673C0.0686626 12.4208 -0.0291606 12.836 0.00755128 13.2504C0.0442632 13.6647 0.213523 14.0559 0.489849 14.3649C0.766176 14.6739 1.13461 14.8841 1.53969 14.9638L8.57223 16.3556V24.26C8.57084 24.6905 8.69777 25.1116 8.93657 25.4685C9.17536 25.8255 9.51501 26.1019 9.9115 26.262C10.3074 26.425 10.7427 26.4641 11.161 26.3743C11.5792 26.2845 11.9609 26.0699 12.2566 25.7585L15.6476 22.2134L21.0275 26.96C21.4156 27.307 21.9162 27.4991 22.4351 27.5C22.6624 27.4998 22.8884 27.4638 23.1047 27.3934C23.4582 27.2803 23.7762 27.0758 24.0269 26.8004C24.2776 26.5249 24.4523 26.188 24.5337 25.8233L29.9698 1.98477C30.0185 1.76978 30.0081 1.5455 29.94 1.33598C29.8718 1.12646 29.7483 0.939588 29.5828 0.795405ZM21.3945 5.65545L9.39588 14.3171L2.75307 13.0036L21.3945 5.65545ZM10.7151 24.26V17.8501L14.0351 20.785L10.7151 24.26ZM22.4378 25.34L11.3646 15.5524L27.302 4.03813L22.4378 25.34Z" fill="#007C60"/>
</svg>
